<svg id="visual" viewBox="0 0 900 600" width="900" height="600" xmlns="http://www.w3.org/2000/svg" xmlns:xlink="http://www.w3.org/1999/xlink" version="1.1"><g><g transform="translate(682 192)"><path d="M0 -100.4L86.9 -50.2L86.9 50.2L0 100.4L-86.9 50.2L-86.9 -50.2Z" fill="none" stroke="#fbc579" stroke-width="7"></path></g><g transform="translate(496 454)"><path d="M0 -100L86.6 -50L86.6 50L0 100L-86.6 50L-86.6 -50Z" fill="none" stroke="#fbc579" stroke-width="7"></path></g><g transform="translate(253 353)"><path d="M0 -100L86.6 -50L86.6 50L0 100L-86.6 50L-86.6 -50Z" stroke="#fbc579" fill="none" stroke-width="7"></path></g><g transform="translate(761 459)"><path d="M0 -100L86.6 -50L86.6 50L0 100L-86.6 50L-86.6 -50Z" stroke="#fbc579" fill="none" stroke-width="7"></path></g><g transform="translate(125 129)"><path d="M0 -100L86.6 -50L86.6 50L0 100L-86.6 50L-86.6 -50Z" stroke="#fbc579" fill="none" stroke-width="7"></path></g><g transform="translate(409 179)"><path d="M0 -100L86.6 -50L86.6 50L0 100L-86.6 50L-86.6 -50Z" stroke="#fbc579" fill="none" stroke-width="7"></path></g></g></svg>